<svg class="main-svg" xmlns="http://www.w3.org/2000/svg" xmlns:xlink="http://www.w3.org/1999/xlink" width="1088.33" height="600" style="" viewBox="0 0 1088.33 600"><rect x="0" y="0" width="1088.33" height="600" style="fill: rgb(255, 255, 255); fill-opacity: 1;"/><defs id="defs-f607bc"><g class="clips"><clipPath id="clipf607bcxyplot" class="plotclip"><rect width="875" height="420"/></clipPath><clipPath class="axesclip" id="clipf607bcx"><rect x="80" y="0" width="875" height="600"/></clipPath><clipPath class="axesclip" id="clipf607bcy"><rect x="0" y="100" width="1088.33" height="420"/></clipPath><clipPath class="axesclip" id="clipf607bcxy"><rect x="80" y="100" width="875" height="420"/></clipPath></g><g class="gradients"/><g class="patterns"/></defs><g class="bglayer"><rect class="bg" x="80" y="100" width="875" height="420" style="fill: rgb(229, 236, 246); fill-opacity: 1; stroke-width: 0;"/></g><g class="layer-below"><g class="imagelayer"/><g class="shapelayer"/></g><g class="cartesianlayer"><g class="subplot xy"><g class="layer-subplot"><g class="shapelayer"/><g class="imagelayer"/></g><g class="minor-gridlayer"><g class="x"/><g class="y"/></g><g class="gridlayer"><g class="x"><path class="xgrid crisp" transform="translate(183.5,0)" d="M0,100v420" style="stroke: rgb(255, 255, 255); stroke-opacity: 1; stroke-width: 1px;"/><path class="xgrid crisp" transform="translate(283.71000000000004,0)" d="M0,100v420" style="stroke: rgb(255, 255, 255); stroke-opacity: 1; stroke-width: 1px;"/><path class="xgrid crisp" transform="translate(383.93,0)" d="M0,100v420" style="stroke: rgb(255, 255, 255); stroke-opacity: 1; stroke-width: 1px;"/><path class="xgrid crisp" transform="translate(484.14,0)" d="M0,100v420" style="stroke: rgb(255, 255, 255); stroke-opacity: 1; stroke-width: 1px;"/><path class="xgrid crisp" transform="translate(584.36,0)" d="M0,100v420" style="stroke: rgb(255, 255, 255); stroke-opacity: 1; stroke-width: 1px;"/><path class="xgrid crisp" transform="translate(684.57,0)" d="M0,100v420" style="stroke: rgb(255, 255, 255); stroke-opacity: 1; stroke-width: 1px;"/><path class="xgrid crisp" transform="translate(784.78,0)" d="M0,100v420" style="stroke: rgb(255, 255, 255); stroke-opacity: 1; stroke-width: 1px;"/><path class="xgrid crisp" transform="translate(885,0)" d="M0,100v420" style="stroke: rgb(255, 255, 255); stroke-opacity: 1; stroke-width: 1px;"/></g><g class="y"><path class="ygrid crisp" transform="translate(0,480.56)" d="M80,0h875" style="stroke: rgb(255, 255, 255); stroke-opacity: 1; stroke-width: 1px;"/><path class="ygrid crisp" transform="translate(0,429.34)" d="M80,0h875" style="stroke: rgb(255, 255, 255); stroke-opacity: 1; stroke-width: 1px;"/><path class="ygrid crisp" transform="translate(0,378.12)" d="M80,0h875" style="stroke: rgb(255, 255, 255); stroke-opacity: 1; stroke-width: 1px;"/><path class="ygrid crisp" transform="translate(0,326.9)" d="M80,0h875" style="stroke: rgb(255, 255, 255); stroke-opacity: 1; stroke-width: 1px;"/><path class="ygrid crisp" transform="translate(0,275.68)" d="M80,0h875" style="stroke: rgb(255, 255, 255); stroke-opacity: 1; stroke-width: 1px;"/><path class="ygrid crisp" transform="translate(0,224.45999999999998)" d="M80,0h875" style="stroke: rgb(255, 255, 255); stroke-opacity: 1; stroke-width: 1px;"/><path class="ygrid crisp" transform="translate(0,173.24)" d="M80,0h875" style="stroke: rgb(255, 255, 255); stroke-opacity: 1; stroke-width: 1px;"/><path class="ygrid crisp" transform="translate(0,122.02)" d="M80,0h875" style="stroke: rgb(255, 255, 255); stroke-opacity: 1; stroke-width: 1px;"/></g></g><g class="zerolinelayer"><path class="xzl zl crisp" transform="translate(83.28,0)" d="M0,100v420" style="stroke: rgb(255, 255, 255); stroke-opacity: 1; stroke-width: 2px;"/></g><path class="xlines-below"/><path class="ylines-below"/><g class="overlines-below"/><g class="xaxislayer-below"/><g class="yaxislayer-below"/><g class="overaxes-below"/><g class="plot" transform="translate(80,100)" clip-path="url(#clipf607bcxyplot)"><g class="scatterlayer mlayer"><g class="trace scatter traceebf56b" style="stroke-miterlimit: 2; opacity: 1;"><g class="fills"/><g class="errorbars"/><g class="lines"><path class="js-line" d="M3.78,320.12L5.79,309.88L6.29,311.93L7.29,304.76L7.79,304.76L8.29,303.73L8.79,304.76L9.3,303.73L9.8,304.76L10.3,304.76L10.8,302.71L11.3,302.71L11.8,301.68L12.3,301.68L12.8,302.71L14.81,306.8L15.31,308.85L16.81,306.8L17.31,308.85L17.81,309.88L18.32,301.68L18.82,301.68L19.32,302.71L19.82,301.68L20.32,303.73L20.82,301.68L21.32,304.76L22.32,300.66L22.82,300.66L23.33,300.66L23.83,303.73L24.83,302.71L25.33,299.63L26.83,301.68L27.33,307.83L27.84,301.68L28.34,302.71L28.84,301.68L29.34,300.66L29.84,307.83L30.34,308.85L30.84,299.63L31.34,299.63L31.84,300.66L32.85,298.61L33.35,298.61L33.85,298.61L34.35,299.63L34.85,300.66L35.35,299.63L36.35,301.68L36.85,300.66L37.86,298.61L38.36,298.61L38.86,298.61L39.36,302.71L40.36,300.66L40.86,301.68L41.36,304.76L41.87,303.73L42.37,300.66L42.87,301.68L43.37,299.63L43.87,299.63L44.37,302.71L45.37,304.76L45.87,303.73L46.38,306.8L46.88,299.63L47.38,299.63L47.88,298.61L48.38,303.73L48.88,301.68L49.38,301.68L49.88,302.71L50.38,299.63L50.88,299.63L51.39,302.71L51.89,301.68L52.39,302.71L52.89,304.76L53.39,300.66L53.89,303.73L54.39,301.68L54.89,299.63L55.39,300.66L55.9,300.66L56.9,299.63L57.4,299.63L58.9,302.71L59.4,301.68L59.9,305.78L60.41,300.66L60.91,300.66L61.41,302.71L61.91,302.71L62.41,298.61L62.91,299.63L63.41,302.71L64.41,299.63L64.91,303.73L65.92,301.68L66.42,301.68L67.42,298.61L67.92,299.63L68.92,307.83L69.42,301.68L69.93,301.68L70.43,304.76L70.93,303.73L71.43,304.76L71.93,300.66L72.43,305.78L73.93,302.71L74.44,304.76L75.44,298.61L75.94,300.66L76.94,301.68L77.44,301.68L77.94,301.68L78.44,309.88L79.45,300.66L79.95,300.66L80.45,300.66L80.95,298.61L81.95,299.63L82.45,298.61L83.45,301.68L83.96,300.66L84.46,301.68L84.96,300.66L85.96,300.66L86.46,301.68L86.96,301.68L87.46,303.73L88.47,300.66L88.97,301.68L89.47,301.68L89.97,303.73L91.47,300.66L91.97,301.68L92.47,303.73L92.97,300.66L93.98,302.71L94.48,305.78L94.98,309.88L95.48,308.85L95.98,310.9L96.48,305.78L96.98,335.49L98.49,306.8L98.99,309.88L99.49,307.83L99.99,312.95L100.49,321.15L100.99,313.98L101.99,309.88L102.5,309.88L103.5,307.83L104,311.93L104.5,307.83L105,308.85L105.5,312.95L106.5,312.95L107,319.1L108.51,309.88L109.01,311.93L109.51,308.85L110.01,309.88L110.51,309.88L111.01,310.9L111.51,306.8L112.02,307.83L112.52,306.8L113.02,311.93L113.52,310.9L114.02,308.85L114.52,308.85L115.02,309.88L115.52,310.9L116.02,308.85L116.53,310.9L117.03,308.85L118.03,307.83L118.53,327.29L119.53,307.83L120.03,307.83L120.53,321.15L121.04,315L121.54,321.15L123.04,315L123.54,313.98L124.54,308.85L125.04,310.9L125.54,323.2L126.05,308.85L127.55,315L128.05,311.93L128.55,311.93L129.05,306.8L129.55,308.85L130.05,306.8L130.56,309.88L131.06,308.85L131.56,308.85L132.06,308.85L132.56,317.05L133.56,313.98L134.06,324.22L134.56,315L135.07,317.05L135.57,312.95L136.07,311.93L136.57,308.85L137.07,308.85L137.57,309.88L139.07,307.83L139.57,308.85L140.08,307.83L140.58,308.85L141.08,306.8L141.58,308.85L142.08,306.8L142.58,307.83L143.08,306.8L143.58,308.85L144.08,316.02L144.59,309.88L145.09,311.93L145.59,315L146.09,309.88L146.59,311.93L147.09,312.95L148.09,313.98L148.59,310.9L149.1,318.07L149.6,310.9L150.6,311.93L151.1,309.88L151.6,308.85L152.1,309.88L153.1,310.9L153.6,310.9L155.11,308.85L155.61,308.85L156.61,309.88L157.11,309.88L157.61,309.88L158.11,308.85L158.62,310.9L159.12,308.85L159.62,308.85L160.12,310.9L161.12,309.88L161.62,309.88L162.12,309.88L162.62,313.98L163.13,315L163.63,312.95L164.63,310.9L165.13,318.07L165.63,320.12L166.13,312.95L167.13,312.95L167.63,323.2L168.64,308.85L169.14,311.93L169.64,313.98L170.14,311.93L171.14,310.9L171.64,312.95L172.65,310.9L173.15,311.93L173.65,315L174.15,312.95L174.65,313.98L175.15,312.95L175.65,309.88L176.15,310.9L176.65,312.95L177.16,311.93L177.66,316.02L178.16,310.9L178.66,312.95L179.16,310.9L180.16,308.85L180.66,312.95L181.16,310.9L181.66,315L182.17,310.9L182.67,312.95L183.17,313.98L183.67,310.9L184.17,312.95L185.17,310.9L185.67,311.93L186.68,308.85L187.18,308.85L188.68,310.9L189.18,309.88L189.68,308.85L190.18,309.88L190.68,309.88L191.19,308.85L192.19,310.9L192.69,308.85L194.19,310.9L194.69,309.88L195.69,311.93L196.2,315L196.7,317.05L197.2,311.93L198.2,315L198.7,310.9L199.2,312.95L199.7,309.88L200.71,312.95L201.21,315L202.71,309.88L203.21,309.88L204.21,309.88L204.71,338.56L205.72,310.9L206.22,309.88L206.72,312.95L207.22,311.93L207.72,310.9L208.22,310.9L208.72,309.88L209.22,315L209.72,310.9L210.23,310.9L210.73,311.93L211.23,310.9L211.73,312.95L212.23,313.98L212.73,311.93L213.23,313.98L213.73,310.9L214.23,313.98L214.74,310.9L216.24,310.9L216.74,311.93L217.74,311.93L218.24,309.88L219.25,309.88L219.75,310.9L220.25,310.9L220.75,312.95L221.75,309.88L222.25,309.88L222.75,309.88L223.25,316.02L224.26,312.95L224.76,315L225.76,316.02L226.26,312.95L226.76,311.93L227.26,312.95L227.76,310.9L228.26,315L229.27,316.02L229.77,312.95L230.77,312.95L231.27,310.9L232.27,309.88L232.77,309.88L233.28,310.9L233.78,316.02L235.28,311.93L235.78,311.93L236.28,311.93L236.78,315L237.79,311.93L238.29,315L238.79,315L239.29,318.07L239.79,313.98L240.29,315L240.79,347.78L241.79,315L242.29,313.98L243.3,312.95L243.8,315L244.3,316.02L244.8,315L245.3,313.98L245.8,317.05L246.8,311.93L247.31,323.2L248.81,310.9L249.31,312.95L249.81,312.95L250.31,316.02L250.81,312.95L251.31,315L252.82,312.95L253.32,315L253.82,318.07L254.32,313.98L254.82,311.93L255.32,316.02L256.32,320.12L256.83,318.07L257.33,313.98L257.83,348.8L258.83,319.1L259.33,324.22L260.83,331.39L261.34,324.22L262.34,313.98L262.84,313.98L263.34,319.1L263.84,316.02L264.34,316.02L264.84,318.07L265.34,317.05L265.85,318.07L266.35,326.27L266.85,319.1L267.35,319.1L267.85,325.24L268.85,316.02L269.35,316.02L270.35,320.12L270.86,317.05L271.36,323.2L271.86,318.07L272.36,318.07L272.86,316.02L273.36,318.07L273.86,316.02L274.86,316.02L275.37,318.07L276.37,321.15L276.87,317.05L277.37,316.02L277.87,317.05L278.37,317.05L278.87,316.02L279.37,316.02L279.88,317.05L280.88,316.02L281.38,317.05L281.88,318.07L282.38,317.05L282.88,320.12L283.38,333.44L283.88,317.05L284.38,320.12L284.89,328.32L285.39,320.12L285.89,321.15L286.39,320.12L286.89,324.22L287.39,320.12L287.89,320.12L288.39,321.15L288.89,326.27L289.4,323.2L289.9,323.2L290.4,327.29L291.4,330.37L291.9,331.39L292.4,330.37L292.9,336.51L293.4,339.59L293.91,332.41L294.41,340.61L294.91,331.39L295.41,330.37L295.91,332.41L297.41,332.41L297.91,376.46L298.92,381.59L299.42,382.61L299.92,380.56L300.42,381.59L300.92,382.61L302.42,389.78L302.92,387.73L304.93,387.73L305.43,389.78L306.43,387.73L306.93,388.76L307.43,388.76L307.94,389.78L308.44,388.76L308.94,389.78L309.44,388.76L309.94,391.83L310.94,387.73L311.44,387.73L312.95,384.66L313.45,384.66L313.95,384.66L314.45,387.73L314.95,395.93L315.45,387.73L315.95,387.73L316.45,388.76L317.46,386.71L317.96,386.71L318.96,388.76L319.46,386.71L320.46,386.71L320.96,387.73L321.97,388.76L322.47,387.73L322.97,388.76L323.47,386.71L323.97,386.71L324.47,388.76L324.97,387.73L325.47,388.76L326.47,389.78L326.98,388.76L327.48,396.95L327.98,388.76L328.48,387.73L328.98,388.76L330.48,388.76L330.98,389.78L332.49,386.71L332.99,387.73L333.99,386.71L334.49,386.71L336,388.76L336.5,388.76L337.5,389.78L338,388.76L338.5,389.78L339,388.76L340,386.71L340.5,397.98L341.01,395.93L341.51,399L342.01,386.71L342.51,387.73L343.01,387.73L344.01,388.76L344.51,393.88L345.52,396.95L346.02,390.8L346.52,391.83L347.02,389.78L348.52,389.78L349.02,387.73L349.52,387.73L350.03,388.76L351.03,387.73L351.53,387.73L352.03,389.78L352.53,388.76L353.03,388.76L354.54,388.76L355.04,387.73L355.54,389.78L356.04,387.73L356.54,386.71L357.04,387.73L358.04,386.71L358.54,386.71L359.55,388.76L360.05,385.68L360.55,381.59L361.05,349.83L361.55,340.61L362.05,341.63L362.55,340.61L363.05,338.56L363.55,345.73L364.06,340.61L364.56,341.63L365.06,338.56L365.56,338.56L366.06,359.05L366.56,337.54L367.06,338.56L367.56,338.56L369.07,336.51L369.57,336.51L370.07,336.51L370.57,337.54L371.57,339.59L372.07,343.68L373.58,338.56L374.08,338.56L375.08,338.56L375.58,340.61L376.58,337.54L377.08,337.54L377.58,339.59L378.09,337.54L379.09,337.54L379.59,336.51L380.59,339.59L381.09,337.54L381.59,339.59L382.09,350.85L382.6,338.56L383.1,340.61L383.6,347.78L384.6,337.54L385.1,336.51L385.6,338.56L386.1,336.51L386.6,335.49L387.1,338.56L388.11,334.46L388.61,334.46L389.11,334.46L389.61,336.51L391.11,339.59L391.61,339.59L392.62,336.51L393.12,344.71L394.12,336.51L394.62,337.54L395.12,338.56L396.12,337.54L396.63,337.54L397.13,336.51L397.63,343.68L398.13,337.54L398.63,339.59L399.13,337.54L399.63,337.54L400.13,338.56L401.13,336.51L401.64,336.51L402.64,340.61L403.14,339.59L404.64,337.54L405.14,337.54L405.64,338.56L406.15,341.63L406.65,337.54L407.15,338.56L407.65,338.56L409.15,338.56L409.65,337.54L410.66,338.56L411.16,338.56L412.66,340.61L413.16,338.56L413.66,341.63L414.16,338.56L414.66,337.54L415.16,339.59L415.67,338.56L416.17,341.63L417.17,339.59L417.67,341.63L418.17,337.54L418.67,338.56L419.17,339.59L420.18,339.59L420.68,341.63L421.18,340.61L421.68,344.71L422.68,338.56L423.18,339.59L423.68,339.59L424.18,338.56L424.69,341.63L425.19,339.59L426.69,339.59L427.19,338.56L429.19,338.56L429.7,340.61L430.7,338.56L431.2,339.59L431.7,339.59L432.2,338.56L432.7,338.56L433.2,339.59L435.21,342.66L435.71,341.63L437.21,336.51L437.71,338.56L438.72,346.76L439.22,341.63L439.72,343.68L440.22,340.61L441.22,339.59L441.72,339.59L442.22,338.56L442.72,339.59L443.22,339.59L443.73,338.56L444.23,340.61L444.73,339.59L445.23,338.56L445.73,337.54L446.23,339.59L446.73,340.61L447.23,337.54L447.73,339.59L448.24,337.54L449.24,338.56L449.74,338.56L451.74,338.56L452.24,339.59L453.75,339.59L454.25,353.93L455.25,338.56L455.75,338.56L456.75,337.54L457.25,342.66L457.76,343.68L458.26,340.61L458.76,341.63L459.26,339.59L460.26,339.59L460.76,340.61L461.76,338.56L462.27,339.59L462.77,339.59L463.27,342.66L464.27,340.61L464.77,343.68L466.27,337.54L466.78,339.59L468.28,337.54L468.78,338.56L469.28,339.59L469.78,337.54L470.78,337.54L471.28,338.56L471.79,340.61L472.29,339.59L472.79,337.54L474.29,337.54L474.79,338.56L475.29,339.59L475.79,338.56L476.8,339.59L477.3,342.66L477.8,340.61L478.3,342.66L478.8,341.63L479.3,342.66L479.8,339.59L480.3,342.66L480.81,342.66L481.31,341.63L481.81,342.66L482.31,340.61L483.81,337.54L484.31,337.54L484.81,349.83L485.32,339.59L485.82,343.68L486.32,339.59L486.82,339.59L487.32,342.66L487.82,343.68L488.32,341.63L489.32,344.71L489.82,343.68L490.33,365.2L490.83,344.71L492.33,338.56L492.83,339.59L493.83,338.56L494.33,339.59L494.84,343.68L495.34,339.59L496.34,339.59L496.84,340.61L497.34,340.61L497.84,342.66L498.34,340.61L498.84,342.66L499.35,341.63L499.85,343.68L501.35,340.61L501.85,340.61L502.35,342.66L502.85,340.61L503.85,339.59L504.36,343.68L504.86,340.61L505.36,341.63L505.86,340.61L506.86,339.59L507.36,340.61L507.86,345.73L508.36,342.66L508.87,343.68L509.37,340.61L510.87,340.61L511.37,349.83L511.87,339.59L512.37,340.61L512.87,341.63L513.88,340.61L514.38,342.66L515.38,339.59L515.88,339.59L516.88,342.66L517.38,340.61L518.39,340.61L518.89,341.63L520.39,339.59L520.89,340.61L521.89,342.66L522.39,339.59L522.9,341.63L523.4,340.61L523.9,340.61L524.4,340.61L524.9,342.66L525.4,343.68L525.9,338.56L526.4,338.56L526.9,340.61L527.91,340.61L528.41,338.56L528.91,338.56L529.41,340.61L530.41,342.66L530.91,342.66L531.41,344.71L531.91,340.61L532.42,340.61L532.92,339.59L533.92,339.59L534.42,340.61L535.42,339.59L535.92,339.59L536.93,337.54L537.43,371.34L538.43,343.68L538.93,341.63L539.93,343.68L540.43,341.63L541.44,341.63L541.94,337.54L542.44,337.54L542.94,348.8L543.94,337.54L544.44,338.56L545.44,343.68L545.94,342.66L546.45,339.59L546.95,340.61L547.45,340.61L547.95,340.61L548.45,341.63L548.95,341.63L549.45,339.59L550.45,339.59L550.96,341.63L551.46,341.63L551.96,340.61L552.96,343.68L553.46,340.61L554.46,339.59L554.96,339.59L555.47,337.54L555.97,279.15L556.47,281.2L556.97,280.17L557.47,280.17L558.47,277.1L558.97,276.07L559.47,275.05L559.97,279.15L560.98,273L561.48,274.02L562.48,274.02L562.98,279.15L563.98,277.1L564.48,281.2L564.99,302.71L565.49,279.15L566.49,276.07L566.99,275.05L568.49,266.85L568.99,242.27L571,86.56L571.5,83.49L573,69.15L573.5,72.22L575.01,56.85L575.51,57.88L576.01,56.85L576.51,57.88L577.51,55.83L578.01,59.93L579.02,65.05L579.52,59.93L580.02,69.15L580.52,67.1L581.02,58.9L582.02,65.05L582.52,96.8L583.53,51.73L584.03,51.73L584.53,50.71L585.03,51.73L585.53,56.85L586.03,53.78L588.03,49.68L588.54,50.71L589.04,50.71L589.54,54.8L590.04,49.68L590.54,52.76L591.04,49.68L591.54,51.73L592.54,54.8L593.05,57.88L595.05,49.68L595.55,60.95L596.55,51.73L597.05,54.8L597.56,55.83L598.06,53.78L598.56,48.66L599.06,49.68L599.56,49.68L600.06,51.73L600.56,60.95L602.07,48.66L602.57,45.59L603.07,47.63L603.57,46.61L604.07,46.61L604.57,45.59L605.07,60.95L606.07,44.56L606.57,44.56L608.08,41.49L608.58,41.49L609.08,44.56L609.58,42.51L610.08,41.49L610.58,53.78L611.08,52.76L611.59,43.54L612.09,43.54L612.59,44.56L614.09,42.51L614.59,57.88L615.09,54.8L615.59,46.61L616.1,44.56L616.6,50.71L617.6,42.51L618.1,64.02L618.6,65.05L619.1,59.93L620.1,41.49L620.6,42.51L621.11,42.51L621.61,39.44L622.61,84.51L623.11,41.49L624.11,40.46L624.61,37.39L626.12,40.46L626.62,47.63L627.12,39.44L627.62,42.51L628.12,49.68L628.62,48.66L629.12,49.68L630.13,41.49L630.63,187.98L631.63,45.59L632.13,37.39L633.63,41.49L634.13,38.41L634.63,37.39L635.14,39.44L635.64,63L636.14,61.98L636.64,42.51L637.14,42.51L637.64,38.41L638.14,38.41L638.64,36.37L639.14,35.34L639.65,37.39L640.65,40.46L641.15,41.49L641.65,43.54L642.15,140.85L643.65,36.37L644.16,37.39L645.16,43.54L645.66,41.49L646.16,45.59L646.66,43.54L647.16,40.46L647.66,31.24L648.16,32.27L648.66,32.27L649.17,33.29L649.67,38.41L650.17,31.24L650.67,37.39L651.17,29.2L651.67,34.32L652.67,96.8L653.17,101.93L654.68,29.2L655.18,30.22L656.18,34.32L656.68,32.27L657.18,33.29L657.68,82.46L658.69,31.24L659.19,32.27L659.69,35.34L660.19,32.27L660.69,42.51L661.19,38.41L661.69,35.34L662.69,29.2L663.2,32.27L663.7,36.37L664.2,32.27L664.7,32.27L665.2,27.15L665.7,27.15L666.2,29.2L666.7,31.24L667.2,28.17L668.21,28.17L668.71,31.24L669.71,27.15L670.21,28.17L671.21,37.39L671.71,37.39L672.22,32.27L672.72,34.32L673.22,47.63L673.72,43.54L674.22,57.88L675.22,33.29L675.72,32.27L676.22,33.29L676.72,30.22L677.23,60.95L677.73,35.34L679.23,29.2L679.73,28.17L680.23,31.24L680.73,52.76L681.23,33.29L681.74,34.32L682.24,57.88L683.24,27.15L683.74,34.32L684.74,27.15L685.24,27.15L685.74,42.51L686.25,41.49L686.75,35.34L687.25,44.56L687.75,32.27L688.75,29.2L689.25,40.46L690.25,32.27L690.75,34.32L691.26,46.61L691.76,44.56L692.26,30.22L692.76,30.22L693.26,31.24L693.76,34.32L694.26,33.29L694.76,29.2L695.26,28.17L695.77,29.2L696.27,40.46L696.77,32.27L697.77,36.37L698.27,31.24L699.27,28.17L699.77,70.17L700.78,28.17L701.28,31.24L702.28,34.32L702.78,36.37L703.28,57.88L703.78,46.61L704.28,57.88L704.78,38.41L705.79,28.17L706.29,29.2L706.79,29.2L707.29,38.41L707.79,31.24L708.29,34.32L708.79,32.27L709.29,94.76L709.8,43.54L710.3,27.15L710.8,29.2L711.3,30.22L712.3,32.27L712.8,31.24L713.8,30.22L714.31,32.27L714.81,35.34L715.31,31.24L716.81,83.49L717.31,47.63L717.81,44.56L718.31,31.24L719.32,41.49L719.82,36.37L720.32,108.07L720.82,33.29L721.82,28.17L722.32,29.2L722.82,30.22L723.32,36.37L723.83,30.22L724.33,29.2L724.83,34.32L725.33,34.32L725.83,39.44L726.33,70.17L726.83,51.73L727.83,29.2L728.34,31.24L728.84,31.24L729.34,50.71L730.34,27.15L730.84,29.2L731.34,43.54L731.84,42.51L732.34,45.59L733.35,30.22L733.85,32.27L734.35,29.2L736.35,35.34L736.85,30.22L737.86,25.1L738.36,26.12L739.36,41.49L739.86,28.17L740.86,30.22L741.36,27.15L742.37,29.2L742.87,26.12L743.37,26.12L743.87,30.22L744.37,24.07L744.87,28.17L745.87,21L746.37,24.07L747.38,31.24L747.88,25.1L748.38,23.05L748.88,32.27L749.38,24.07L749.88,26.12L750.38,24.07L750.88,22.02L751.38,25.1L751.89,56.85L752.39,24.07L753.39,23.05L753.89,24.07L754.39,38.41L754.89,31.24L755.39,28.17L755.89,25.1L756.4,27.15L756.9,24.07L757.4,29.2L757.9,29.2L758.4,35.34L758.9,48.66L759.4,25.1L759.9,25.1L760.4,37.39L761.41,22.02L761.91,23.05L762.41,23.05L762.91,24.07L763.91,42.51L764.41,33.29L765.41,40.46L765.92,30.22L766.42,39.44L766.92,27.15L767.42,30.22L767.92,24.07L768.42,23.05L768.92,25.1L769.42,61.98L769.92,25.1L770.43,25.1L770.93,24.07L771.43,27.15L771.93,22.02L772.93,23.05L773.43,26.12L773.93,27.15L774.43,64.02L774.94,64.02L775.44,28.17L775.94,32.27L776.44,95.78L777.44,22.02L777.94,21L779.95,27.15L780.45,26.12L780.95,26.12L781.45,25.1L781.95,38.41L782.45,27.15L782.95,34.32L783.45,29.2L784.46,46.61L784.96,34.32L785.96,26.12L786.46,34.32L786.96,23.05L787.46,55.83L787.96,24.07L788.46,26.12L788.97,21L789.47,21L789.97,26.12L790.97,27.15L791.47,23.05L791.97,31.24L792.47,25.1L792.97,35.34L793.47,23.05L794.48,22.02L794.98,24.07L795.98,36.37L796.48,27.15L796.98,26.12L797.48,28.17L798.49,25.1L798.99,61.98L799.99,23.05L800.49,23.05L800.99,52.76L801.49,31.24L801.99,31.24L802.49,24.07L803.5,26.12L804,24.07L804.5,28.17L805,24.07L806,22.02L806.5,26.12L807,27.15L807.5,24.07L809.01,35.34L809.51,33.29L810.51,24.07L811.01,28.17L811.51,25.1L812.01,29.2L813.52,24.07L814.02,25.1L814.52,28.17L815.02,25.1L815.52,27.15L816.02,35.34L816.52,24.07L817.03,25.1L817.53,23.05L818.03,25.1L818.53,35.34L819.03,37.39L819.53,29.2L820.03,24.07L820.53,25.1L821.03,30.22L822.04,40.46L822.54,33.29L823.04,107.05L823.54,36.37L825.04,80.41L825.54,35.34L827.05,23.05L827.55,24.07L828.05,24.07L829.05,39.44L829.55,25.1L830.05,27.15L830.55,26.12L831.06,32.27L831.56,29.2L832.06,39.44L832.56,43.54L833.06,37.39L833.56,38.41L834.06,27.15L834.56,26.12L835.06,48.66L835.57,46.61L836.07,27.15L837.07,38.41L837.57,26.12L838.07,27.15L838.57,34.32L840.07,22.02L840.58,38.41L841.08,26.12L841.58,33.29L842.58,41.49L843.08,30.22L843.58,33.29L844.08,44.56L845.59,31.24L846.09,34.32L846.59,35.34L847.09,33.29L847.59,32.27L848.09,35.34L848.59,26.12L849.09,27.15L849.6,27.15L850.1,28.17L850.6,26.12L852.1,39.44L852.6,43.54L854.61,52.76L855.11,56.85" style="vector-effect: none; fill: none; stroke: rgb(16, 150, 24); stroke-opacity: 1; stroke-width: 2px; opacity: 1;"/></g><g class="points"/><g class="text"/></g></g></g><g class="overplot"/><path class="xlines-above crisp" d="M0,0" style="fill: none;"/><path class="ylines-above crisp" d="M0,0" style="fill: none;"/><g class="overlines-above"/><g class="xaxislayer-above"><g class="xtick"><text text-anchor="middle" x="0" y="533" transform="translate(83.28,0)" style="font-family: 'Open Sans', verdana, arial, sans-serif; font-size: 12px; fill: rgb(42, 63, 95); fill-opacity: 1; white-space: pre; opacity: 1;">0</text></g><g class="xtick"><text text-anchor="middle" x="0" y="533" style="font-family: 'Open Sans', verdana, arial, sans-serif; font-size: 12px; fill: rgb(42, 63, 95); fill-opacity: 1; white-space: pre; opacity: 1;" transform="translate(183.5,0)">200</text></g><g class="xtick"><text text-anchor="middle" x="0" y="533" style="font-family: 'Open Sans', verdana, arial, sans-serif; font-size: 12px; fill: rgb(42, 63, 95); fill-opacity: 1; white-space: pre; opacity: 1;" transform="translate(283.71000000000004,0)">400</text></g><g class="xtick"><text text-anchor="middle" x="0" y="533" style="font-family: 'Open Sans', verdana, arial, sans-serif; font-size: 12px; fill: rgb(42, 63, 95); fill-opacity: 1; white-space: pre; opacity: 1;" transform="translate(383.93,0)">600</text></g><g class="xtick"><text text-anchor="middle" x="0" y="533" style="font-family: 'Open Sans', verdana, arial, sans-serif; font-size: 12px; fill: rgb(42, 63, 95); fill-opacity: 1; white-space: pre; opacity: 1;" transform="translate(484.14,0)">800</text></g><g class="xtick"><text text-anchor="middle" x="0" y="533" style="font-family: 'Open Sans', verdana, arial, sans-serif; font-size: 12px; fill: rgb(42, 63, 95); fill-opacity: 1; white-space: pre; opacity: 1;" transform="translate(584.36,0)">1000</text></g><g class="xtick"><text text-anchor="middle" x="0" y="533" style="font-family: 'Open Sans', verdana, arial, sans-serif; font-size: 12px; fill: rgb(42, 63, 95); fill-opacity: 1; white-space: pre; opacity: 1;" transform="translate(684.57,0)">1200</text></g><g class="xtick"><text text-anchor="middle" x="0" y="533" style="font-family: 'Open Sans', verdana, arial, sans-serif; font-size: 12px; fill: rgb(42, 63, 95); fill-opacity: 1; white-space: pre; opacity: 1;" transform="translate(784.78,0)">1400</text></g><g class="xtick"><text text-anchor="middle" x="0" y="533" style="font-family: 'Open Sans', verdana, arial, sans-serif; font-size: 12px; fill: rgb(42, 63, 95); fill-opacity: 1; white-space: pre; opacity: 1;" transform="translate(885,0)">1600</text></g></g><g class="yaxislayer-above"><g class="ytick"><text text-anchor="end" x="79" y="4.199999999999999" transform="translate(0,480.56)" style="font-family: 'Open Sans', verdana, arial, sans-serif; font-size: 12px; fill: rgb(42, 63, 95); fill-opacity: 1; white-space: pre; opacity: 1;">50</text></g><g class="ytick"><text text-anchor="end" x="79" y="4.199999999999999" style="font-family: 'Open Sans', verdana, arial, sans-serif; font-size: 12px; fill: rgb(42, 63, 95); fill-opacity: 1; white-space: pre; opacity: 1;" transform="translate(0,429.34)">100</text></g><g class="ytick"><text text-anchor="end" x="79" y="4.199999999999999" style="font-family: 'Open Sans', verdana, arial, sans-serif; font-size: 12px; fill: rgb(42, 63, 95); fill-opacity: 1; white-space: pre; opacity: 1;" transform="translate(0,378.12)">150</text></g><g class="ytick"><text text-anchor="end" x="79" y="4.199999999999999" style="font-family: 'Open Sans', verdana, arial, sans-serif; font-size: 12px; fill: rgb(42, 63, 95); fill-opacity: 1; white-space: pre; opacity: 1;" transform="translate(0,326.9)">200</text></g><g class="ytick"><text text-anchor="end" x="79" y="4.199999999999999" style="font-family: 'Open Sans', verdana, arial, sans-serif; font-size: 12px; fill: rgb(42, 63, 95); fill-opacity: 1; white-space: pre; opacity: 1;" transform="translate(0,275.68)">250</text></g><g class="ytick"><text text-anchor="end" x="79" y="4.199999999999999" style="font-family: 'Open Sans', verdana, arial, sans-serif; font-size: 12px; fill: rgb(42, 63, 95); fill-opacity: 1; white-space: pre; opacity: 1;" transform="translate(0,224.45999999999998)">300</text></g><g class="ytick"><text text-anchor="end" x="79" y="4.199999999999999" style="font-family: 'Open Sans', verdana, arial, sans-serif; font-size: 12px; fill: rgb(42, 63, 95); fill-opacity: 1; white-space: pre; opacity: 1;" transform="translate(0,173.24)">350</text></g><g class="ytick"><text text-anchor="end" x="79" y="4.199999999999999" style="font-family: 'Open Sans', verdana, arial, sans-serif; font-size: 12px; fill: rgb(42, 63, 95); fill-opacity: 1; white-space: pre; opacity: 1;" transform="translate(0,122.02)">400</text></g></g><g class="overaxes-above"/></g></g><g class="polarlayer"/><g class="smithlayer"/><g class="ternarylayer"/><g class="geolayer"/><g class="funnelarealayer"/><g class="pielayer"/><g class="iciclelayer"/><g class="treemaplayer"/><g class="sunburstlayer"/><g class="glimages"/><defs id="topdefs-f607bc"><g class="clips"/><clipPath id="legendf607bc"><rect width="103" height="162" x="0" y="0"/></clipPath></defs><g class="layer-above"><g class="imagelayer"/><g class="shapelayer"><g class="shape-group" data-index="0" clip-path="url(#clipf607bcxy)"><path data-index="0" fill-rule="evenodd" d="M83.28,480.56L1225.73,480.56" style="opacity: 1; stroke: rgb(0, 0, 0); stroke-opacity: 1; fill: rgb(0, 0, 0); fill-opacity: 0; stroke-dasharray: 15px, 15px; stroke-width: 5px;"/></g></g></g><g class="infolayer"><g class="legend" pointer-events="all" transform="translate(972.5,100)"><rect class="bg" shape-rendering="crispEdges" width="103" height="162" x="0" y="0" style="stroke: rgb(68, 68, 68); stroke-opacity: 1; fill: rgb(255, 255, 255); fill-opacity: 1; stroke-width: 0px;"/><g class="scrollbox" transform="" clip-path="url(#legendf607bc)"><g class="groups"><g class="traces" transform="translate(0,14.5)" style="opacity: 0.5;"><text class="legendtext" text-anchor="start" x="40" y="4.680000000000001" style="font-family: 'Open Sans', verdana, arial, sans-serif; font-size: 12px; fill: rgb(42, 63, 95); fill-opacity: 1; white-space: pre;">A_NP</text><g class="layers" style="opacity: 1;"><g class="legendfill"/><g class="legendlines"><path class="js-line" d="M5,0h30" style="fill: none; stroke: rgb(153, 0, 153); stroke-opacity: 1; stroke-width: 2px;"/></g><g class="legendsymbols"><g class="legendpoints"/></g></g><rect class="legendtoggle" x="0" y="-9.5" width="97.30902862548828" height="19" style="fill: rgb(0, 0, 0); fill-opacity: 0;"/></g><g class="traces" transform="translate(0,33.5)" style="opacity: 0.5;"><text class="legendtext" text-anchor="start" x="40" y="4.680000000000001" style="font-family: 'Open Sans', verdana, arial, sans-serif; font-size: 12px; fill: rgb(42, 63, 95); fill-opacity: 1; white-space: pre;">A_PA</text><g class="layers" style="opacity: 1;"><g class="legendfill"/><g class="legendlines"><path class="js-line" d="M5,0h30" style="fill: none; stroke: rgb(0, 153, 198); stroke-opacity: 1; stroke-width: 2px;"/></g><g class="legendsymbols"><g class="legendpoints"/></g></g><rect class="legendtoggle" x="0" y="-9.5" width="97.30902862548828" height="19" style="fill: rgb(0, 0, 0); fill-opacity: 0;"/></g><g class="traces" transform="translate(0,52.5)" style="opacity: 0.5;"><text class="legendtext" text-anchor="start" x="40" y="4.680000000000001" style="font-family: 'Open Sans', verdana, arial, sans-serif; font-size: 12px; fill: rgb(42, 63, 95); fill-opacity: 1; white-space: pre;">A_MP</text><g class="layers" style="opacity: 1;"><g class="legendfill"/><g class="legendlines"><path class="js-line" d="M5,0h30" style="fill: none; stroke: rgb(255, 153, 0); stroke-opacity: 1; stroke-width: 2px;"/></g><g class="legendsymbols"><g class="legendpoints"/></g></g><rect class="legendtoggle" x="0" y="-9.5" width="97.30902862548828" height="19" style="fill: rgb(0, 0, 0); fill-opacity: 0;"/></g><g class="traces" transform="translate(0,71.5)" style="opacity: 1;"><text class="legendtext" text-anchor="start" x="40" y="4.680000000000001" style="font-family: 'Open Sans', verdana, arial, sans-serif; font-size: 12px; fill: rgb(42, 63, 95); fill-opacity: 1; white-space: pre;">A_HA_H1</text><g class="layers" style="opacity: 1;"><g class="legendfill"/><g class="legendlines"><path class="js-line" d="M5,0h30" style="fill: none; stroke: rgb(16, 150, 24); stroke-opacity: 1; stroke-width: 2px;"/></g><g class="legendsymbols"><g class="legendpoints"/></g></g><rect class="legendtoggle" x="0" y="-9.5" width="97.30902862548828" height="19" style="fill: rgb(0, 0, 0); fill-opacity: 0;"/></g><g class="traces" transform="translate(0,90.5)" style="opacity: 0.5;"><text class="legendtext" text-anchor="start" x="40" y="4.680000000000001" style="font-family: 'Open Sans', verdana, arial, sans-serif; font-size: 12px; fill: rgb(42, 63, 95); fill-opacity: 1; white-space: pre;">A_PB1</text><g class="layers" style="opacity: 1;"><g class="legendfill"/><g class="legendlines"><path class="js-line" d="M5,0h30" style="fill: none; stroke: rgb(221, 68, 119); stroke-opacity: 1; stroke-width: 2px;"/></g><g class="legendsymbols"><g class="legendpoints"/></g></g><rect class="legendtoggle" x="0" y="-9.5" width="97.30902862548828" height="19" style="fill: rgb(0, 0, 0); fill-opacity: 0;"/></g><g class="traces" transform="translate(0,109.5)" style="opacity: 0.5;"><text class="legendtext" text-anchor="start" x="40" y="4.680000000000001" style="font-family: 'Open Sans', verdana, arial, sans-serif; font-size: 12px; fill: rgb(42, 63, 95); fill-opacity: 1; white-space: pre;">A_PB2</text><g class="layers" style="opacity: 1;"><g class="legendfill"/><g class="legendlines"><path class="js-line" d="M5,0h30" style="fill: none; stroke: rgb(220, 57, 18); stroke-opacity: 1; stroke-width: 2px;"/></g><g class="legendsymbols"><g class="legendpoints"/></g></g><rect class="legendtoggle" x="0" y="-9.5" width="97.30902862548828" height="19" style="fill: rgb(0, 0, 0); fill-opacity: 0;"/></g><g class="traces" transform="translate(0,128.5)" style="opacity: 0.5;"><text class="legendtext" text-anchor="start" x="40" y="4.680000000000001" style="font-family: 'Open Sans', verdana, arial, sans-serif; font-size: 12px; fill: rgb(42, 63, 95); fill-opacity: 1; white-space: pre;">A_NS</text><g class="layers" style="opacity: 1;"><g class="legendfill"/><g class="legendlines"><path class="js-line" d="M5,0h30" style="fill: none; stroke: rgb(102, 170, 0); stroke-opacity: 1; stroke-width: 2px;"/></g><g class="legendsymbols"><g class="legendpoints"/></g></g><rect class="legendtoggle" x="0" y="-9.5" width="97.30902862548828" height="19" style="fill: rgb(0, 0, 0); fill-opacity: 0;"/></g><g class="traces" transform="translate(0,147.5)" style="opacity: 0.5;"><text class="legendtext" text-anchor="start" x="40" y="4.680000000000001" style="font-family: 'Open Sans', verdana, arial, sans-serif; font-size: 12px; fill: rgb(42, 63, 95); fill-opacity: 1; white-space: pre;">A_NA_N1</text><g class="layers" style="opacity: 1;"><g class="legendfill"/><g class="legendlines"><path class="js-line" d="M5,0h30" style="fill: none; stroke: rgb(51, 102, 204); stroke-opacity: 1; stroke-width: 2px;"/></g><g class="legendsymbols"><g class="legendpoints"/></g></g><rect class="legendtoggle" x="0" y="-9.5" width="97.30902862548828" height="19" style="fill: rgb(0, 0, 0); fill-opacity: 0;"/></g></g></g><rect class="scrollbar" rx="20" ry="3" width="0" height="0" x="0" y="0" style="fill: rgb(128, 139, 164); fill-opacity: 1;"/></g><g class="g-gtitle"><text class="gtitle" x="54.4165" y="50" text-anchor="start" dy="0em" style="font-family: 'Open Sans', verdana, arial, sans-serif; font-size: 17px; fill: rgb(42, 63, 95); opacity: 1; font-weight: normal; white-space: pre;">aa</text></g><g class="g-xtitle"><text class="xtitle" x="517.5" y="560.0783212661743" text-anchor="middle" style="font-family: 'Open Sans', verdana, arial, sans-serif; font-size: 14px; fill: rgb(42, 63, 95); opacity: 1; font-weight: normal; white-space: pre;">Reference Position</text></g><g class="g-ytitle"><text class="ytitle" transform="rotate(-90,31.817187500000003,310)" x="31.817187500000003" y="310" text-anchor="middle" style="font-family: 'Open Sans', verdana, arial, sans-serif; font-size: 14px; fill: rgb(42, 63, 95); opacity: 1; font-weight: normal; white-space: pre;">Coverage</text></g></g></svg>